# xmcd
#
# Track frame offsets: 
#        150
#        30852
#        48569
#        71146
#        86277
#        104716
#        117352
#        138375
#        160766
#        176726
#        200253
#        227157
#        246463
#        260734
#        286379
#        309478
#        330189
#
# Disc length: 4652 seconds
#
# Revision: 0
# Processed by: cddbd v1.5.2PL0 Copyright (c) Steve Scherf et al.
# Submitted via: ExactAudioCopy v1.1
#
DISCID=f2122a11
DTITLE=Louis Armstrong - The absolutely Esential 3CD Collection
DYEAR=2010
DGENRE=Blues
TTITLE0=On the sunny side of the street
TTITLE1=Mahogany Hall Stomp
TTITLE2=Royal Garden Blues
TTITLE3=My sweet hunk O'trash
TTITLE4=Since I fell for you
TTITLE5=Baby, won't you please come home?
TTITLE6=They Can't take that away from me
TTITLE7=Summertime
TTITLE8=Stars fell on alabama
TTITLE9=Stompin' at the Savoy
TTITLE10=Autumn in new york
TTITLE11=Under the blanket of blue
TTITLE12=I've got my love to keep me warm
TTITLE13=the nearness of you
TTITLE14=Tenderly
TTITLE15=I wants to stay here
TTITLE16=Let's call the whole thing off
EXTD=
EXTT0=
EXTT1=
EXTT2=
EXTT3=
EXTT4=
EXTT5=
EXTT6=
EXTT7=
EXTT8=
EXTT9=
EXTT10=
EXTT11=
EXTT12=
EXTT13=
EXTT14=
EXTT15=
EXTT16=
PLAYORDER=
